<svg width="28" height="28" viewBox="0 0 28 28" fill="none" xmlns="http://www.w3.org/2000/svg">
<path d="M17.7204 15.434H17.0429L16.8027 15.2024C17.6432 14.2247 18.1492 12.9554 18.1492 11.5746C18.1492 8.49571 15.6535 6 12.5746 6C9.49571 6 7 8.49571 7 11.5746C7 14.6535 9.49571 17.1492 12.5746 17.1492C13.9554 17.1492 15.2247 16.6432 16.2024 15.8027L16.434 16.0429V16.7204L20.7221 21L22 19.7221L17.7204 15.434ZM12.5746 15.434C10.4391 15.434 8.71527 13.7101 8.71527 11.5746C8.71527 9.43911 10.4391 7.71527 12.5746 7.71527C14.7101 7.71527 16.434 9.43911 16.434 11.5746C16.434 13.7101 14.7101 15.434 12.5746 15.434Z" fill="white"/>
<rect x="0.5" y="0.5" width="27" height="27" rx="9.5" stroke="white"/>
</svg>
